#N canvas 668 442 915 700 10;
#X declare -lib moocow;
#X obj 183 219 zl group 16;
#X obj 183 248 bytes2any;
#X obj 183 273 unpack f f;
#X obj 399 128 import moocow;
#X obj 183 128 inlet;
#X obj 183 304 outlet;
#X obj 240 304 outlet;
#X obj 183 159 comport \$1 57600;
#X obj 447 245 print;
#X obj 183 189 select 10 13;
#X connect 0 0 1 0;
#X connect 1 0 2 0;
#X connect 2 0 5 0;
#X connect 2 1 6 0;
#X connect 4 0 7 0;
#X connect 7 0 9 0;
#X connect 9 0 0 0;
#X connect 9 2 0 0;
