#N canvas 347 143 917 707 10;
#X declare -lib moocow;
#X obj -272 35 loadbang;
#X msg -272 56 \; pd dsp 1;
#X obj -267 422 tgl 15 0 empty empty empty 17 7 0 10 -262144 -1 -1
0 1;
#X msg -267 143 close;
#X floatatom -117 143 5 0 255 0 - - -;
#X obj -213 159 touche_serial;
#X floatatom -213 191 5 0 0 0 - - -;
#X floatatom -138 190 5 0 0 0 - - -;
#X text -77 132 0 = no smoothing \, fast updates;
#X text -76 120 signal smoothing (0..255);
#X text -77 145 255 = smooth signal \, very slow updates;
#X obj -117 102 loadbang;
#X msg -117 58 devicename /dev/cu.usbmodem1411;
#X msg -117 121 0.9;
#X msg -117 29 devicename /dev/cu.usbmodem1421;
#X floatatom -213 238 5 0 0 0 - - -;
#X obj -267 290 > 0;
#X obj -267 330 change;
#X floatatom -267 310 5 0 0 0 - - -;
#X text 301 77 southint.com;
#X text 300 89 WaterTian;
#X obj -267 442 tySound;
#X obj -140 704 dac~;
#X obj -162 411 hsl 60 10 40 60 0 0 empty empty empty -2 -8 0 10 -262144
-1 -1 0 1;
#X obj -165 449 mtof;
#X obj -165 470 osc~;
#X obj -145 666 +~;
#X obj -110 667 +~;
#X floatatom -165 430 5 0 0 0 - - -;
#X floatatom -109 486 5 0 0 0 - - -;
#X obj -180 579 *~;
#X obj -143 579 *~;
#X obj -180 549 +~;
#X obj -143 550 +~;
#N canvas 529 265 966 712 tyHeightVoice 1;
#N canvas 602 228 455 488 synth 0;
#X obj 144 80 inlet;
#N canvas 477 165 450 300 part 0;
#X obj 105 37 inlet;
#X obj 188 109 line~;
#X msg 184 77 1 0;
#X obj 206 52 t b b;
#X obj 152 149 mtof;
#X obj 168 256 *~;
#X obj 263 242 outlet~;
#X obj 154 211 osc~;
#X obj 268 184 osc~;
#X obj 154 190 +~;
#X obj 207 192 *~;
#X obj 256 155 mtof;
#X msg 225 79 0 1000;
#X obj 125 107 + 36;
#X obj 252 131 + 7;
#X obj 325 212 /~ 3;
#X obj 204 232 +~;
#X obj 338 159 osc~ 3;
#X obj 203 147 *~ 2048;
#X connect 0 0 3 0;
#X connect 0 0 13 0;
#X connect 1 0 16 0;
#X connect 1 0 18 0;
#X connect 2 0 1 0;
#X connect 3 0 12 0;
#X connect 3 1 2 0;
#X connect 4 0 9 0;
#X connect 5 0 6 0;
#X connect 7 0 5 0;
#X connect 8 0 10 1;
#X connect 9 0 7 0;
#X connect 10 0 9 1;
#X connect 11 0 8 0;
#X connect 12 0 1 0;
#X connect 13 0 4 0;
#X connect 13 0 14 0;
#X connect 14 0 11 0;
#X connect 15 0 16 1;
#X connect 16 0 5 1;
#X connect 17 0 15 0;
#X connect 18 0 10 0;
#X restore 144 254 pd part;
#X msg 144 110 \$1 127;
#X obj 144 177 pack 0 0 0;
#X obj 144 232 unpack;
#X obj 194 232 unpack;
#X obj 244 232 unpack;
#X obj 294 232 unpack;
#X obj 144 207 route 1 2 3 4;
#X obj 144 152 poly 4 1;
#N canvas 477 165 450 300 part 0;
#X obj 105 37 inlet;
#X obj 188 109 line~;
#X msg 184 77 1 0;
#X obj 206 52 t b b;
#X obj 152 149 mtof;
#X obj 168 256 *~;
#X obj 263 242 outlet~;
#X obj 154 211 osc~;
#X obj 268 184 osc~;
#X obj 154 190 +~;
#X obj 207 192 *~;
#X obj 256 155 mtof;
#X msg 225 79 0 1000;
#X obj 125 107 + 36;
#X obj 252 131 + 7;
#X obj 325 212 /~ 3;
#X obj 204 232 +~;
#X obj 338 159 osc~ 3;
#X obj 203 147 *~ 2048;
#X connect 0 0 3 0;
#X connect 0 0 13 0;
#X connect 1 0 16 0;
#X connect 1 0 18 0;
#X connect 2 0 1 0;
#X connect 3 0 12 0;
#X connect 3 1 2 0;
#X connect 4 0 9 0;
#X connect 5 0 6 0;
#X connect 7 0 5 0;
#X connect 8 0 10 1;
#X connect 9 0 7 0;
#X connect 10 0 9 1;
#X connect 11 0 8 0;
#X connect 12 0 1 0;
#X connect 13 0 4 0;
#X connect 13 0 14 0;
#X connect 14 0 11 0;
#X connect 15 0 16 1;
#X connect 16 0 5 1;
#X connect 17 0 15 0;
#X connect 18 0 10 0;
#X restore 194 254 pd part;
#N canvas 477 165 450 300 part 0;
#X obj 105 37 inlet;
#X obj 188 109 line~;
#X msg 184 77 1 0;
#X obj 206 52 t b b;
#X obj 152 149 mtof;
#X obj 168 256 *~;
#X obj 263 242 outlet~;
#X obj 154 211 osc~;
#X obj 268 184 osc~;
#X obj 154 190 +~;
#X obj 207 192 *~;
#X obj 256 155 mtof;
#X msg 225 79 0 1000;
#X obj 125 107 + 36;
#X obj 252 131 + 7;
#X obj 325 212 /~ 3;
#X obj 204 232 +~;
#X obj 338 159 osc~ 3;
#X obj 203 147 *~ 2048;
#X connect 0 0 3 0;
#X connect 0 0 13 0;
#X connect 1 0 16 0;
#X connect 1 0 18 0;
#X connect 2 0 1 0;
#X connect 3 0 12 0;
#X connect 3 1 2 0;
#X connect 4 0 9 0;
#X connect 5 0 6 0;
#X connect 7 0 5 0;
#X connect 8 0 10 1;
#X connect 9 0 7 0;
#X connect 10 0 9 1;
#X connect 11 0 8 0;
#X connect 12 0 1 0;
#X connect 13 0 4 0;
#X connect 13 0 14 0;
#X connect 14 0 11 0;
#X connect 15 0 16 1;
#X connect 16 0 5 1;
#X connect 17 0 15 0;
#X connect 18 0 10 0;
#X restore 244 254 pd part;
#N canvas 477 165 450 300 part 0;
#X obj 105 37 inlet;
#X obj 188 109 line~;
#X msg 184 77 1 0;
#X obj 206 52 t b b;
#X obj 152 149 mtof;
#X obj 168 256 *~;
#X obj 263 242 outlet~;
#X obj 154 211 osc~;
#X obj 268 184 osc~;
#X obj 154 190 +~;
#X obj 207 192 *~;
#X obj 256 155 mtof;
#X msg 225 79 0 1000;
#X obj 125 107 + 36;
#X obj 252 131 + 7;
#X obj 325 212 /~ 3;
#X obj 204 232 +~;
#X obj 338 159 osc~ 3;
#X obj 203 147 *~ 2048;
#X connect 0 0 3 0;
#X connect 0 0 13 0;
#X connect 1 0 16 0;
#X connect 1 0 18 0;
#X connect 2 0 1 0;
#X connect 3 0 12 0;
#X connect 3 1 2 0;
#X connect 4 0 9 0;
#X connect 5 0 6 0;
#X connect 7 0 5 0;
#X connect 8 0 10 1;
#X connect 9 0 7 0;
#X connect 10 0 9 1;
#X connect 11 0 8 0;
#X connect 12 0 1 0;
#X connect 13 0 4 0;
#X connect 13 0 14 0;
#X connect 14 0 11 0;
#X connect 15 0 16 1;
#X connect 16 0 5 1;
#X connect 17 0 15 0;
#X connect 18 0 10 0;
#X restore 294 254 pd part;
#X obj 198 382 outlet~;
#X obj 205 347 freeverb~;
#X obj 258 382 outlet~;
#X obj 216 310 /~ 5;
#X obj 285 322 /~ 5;
#X connect 0 0 2 0;
#X connect 1 0 16 0;
#X connect 1 0 17 0;
#X connect 2 0 9 0;
#X connect 3 0 8 0;
#X connect 4 0 1 0;
#X connect 5 0 10 0;
#X connect 6 0 11 0;
#X connect 7 0 12 0;
#X connect 8 0 4 0;
#X connect 8 1 5 0;
#X connect 8 2 6 0;
#X connect 8 3 7 0;
#X connect 9 0 3 0;
#X connect 9 1 3 1;
#X connect 9 2 3 2;
#X connect 10 0 16 0;
#X connect 10 0 17 0;
#X connect 11 0 16 0;
#X connect 11 0 17 0;
#X connect 12 0 16 0;
#X connect 12 0 17 0;
#X connect 14 0 13 0;
#X connect 14 1 15 0;
#X connect 16 0 14 0;
#X connect 16 0 14 1;
#X connect 17 0 15 0;
#X connect 17 0 13 0;
#X restore 134 258 pd synth;
#N canvas 82 177 450 300 bass 0;
#X obj 105 37 inlet;
#X obj 188 109 line~;
#X msg 184 77 1 0;
#X obj 206 52 t b b;
#X obj 154 211 phasor~;
#X obj 154 182 mtof;
#X obj 195 270 *~;
#X obj 263 242 outlet~;
#X obj 63 197 phasor~;
#X obj 63 168 mtof;
#X obj 151 249 svf~;
#X obj 281 128 mtof~;
#X msg 224 78 0 1500;
#X obj 57 135 + 24;
#X obj 244 157 +~ 110;
#X obj 286 107 *~ 75;
#X obj 114 251 /~ 2;
#X obj 238 211 0.6;
#X obj 305 186 loadbang;
#X connect 0 0 5 0;
#X connect 0 0 3 0;
#X connect 0 0 13 0;
#X connect 1 0 6 1;
#X connect 1 0 15 0;
#X connect 2 0 1 0;
#X connect 3 0 12 0;
#X connect 3 1 2 0;
#X connect 4 0 10 0;
#X connect 5 0 4 0;
#X connect 6 0 7 0;
#X connect 8 0 16 0;
#X connect 9 0 8 0;
#X connect 10 0 6 0;
#X connect 11 0 14 0;
#X connect 12 0 1 0;
#X connect 13 0 9 0;
#X connect 14 0 10 1;
#X connect 15 0 11 0;
#X connect 16 0 10 0;
#X connect 17 0 10 2;
#X connect 18 0 17 0;
#X restore 70 257 pd bass;
#N canvas 1184 532 450 300 scale 0;
#X obj 39 -465 loadbang;
#X obj 38 -367 table majorScale;
#X msg 39 -427 \; majorScale 0 0 2 4 5 7 9 11;
#X connect 0 0 2 0;
#X restore -26 29 pd scale;
#N canvas 1442 344 676 460 chaos 0;
#X obj -110 43 loadbang;
#X obj -110 76 bng 15 250 50 0 empty empty empty 17 7 0 10 -262144
-1 -1;
#X obj 100 337 coll chaos;
#C restore;
#X msg 12 320 clear;
#X obj -110 167 bng 15 250 50 0 empty empty empty 17 7 0 10 -262144
-1 -1;
#X obj 25 167 bng 15 250 50 0 empty empty empty 17 7 0 10 -262144 -1
-1;
#X obj 155 167 bng 15 250 50 0 empty empty empty 17 7 0 10 -262144
-1 -1;
#X msg -110 207 \; TYchaoLength 100 \; TYchaoNth 1;
#X msg 25 207 \; TYchaoLength 100 \; TYchaoNth 2;
#X msg 155 207 \; TYchaoLength 100 \; TYchaoNth 3;
#N canvas 943 615 617 550 TYchao 0;
#X obj 62 -153 until;
#X obj 62 -125 t b b;
#X msg 62 -93 3.75;
#X floatatom 62 -64 5 0 0 0 - - -;
#X floatatom 62 -5 5 0 0 0 - - -;
#X floatatom 215 -63 5 0 0 0 - - -;
#X obj 62 -33 expr $f1 * $f2 * (1 - $f2);
#X text 310 -251 nth;
#X floatatom 309 10 5 0 0 0 - - -;
#X obj 62 26 pack;
#X msg 62 55 merge \$2 \$1;
#X obj 62 219 outlet;
#X floatatom 62 -184 5 0 0 0 - - -;
#X text 60 -250 length;
#X obj 215 -197 bng 15 250 50 0 empty empty empty 17 7 0 10 -262144
-1 -1;
#X floatatom 215 -92 5 0 0 0 - - -;
#X obj 215 -175 random 10;
#X obj 215 -145 * 0.01;
#X obj 215 -119 + 0.9;
#X obj 62 -230 r TYchaoLength;
#X obj 309 -231 r TYchaoNth;
#X connect 0 0 1 0;
#X connect 1 0 2 0;
#X connect 1 1 5 0;
#X connect 2 0 3 0;
#X connect 3 0 6 0;
#X connect 4 0 9 0;
#X connect 5 0 6 1;
#X connect 6 0 4 0;
#X connect 6 0 5 0;
#X connect 8 0 9 1;
#X connect 9 0 10 0;
#X connect 10 0 11 0;
#X connect 12 0 0 0;
#X connect 14 0 16 0;
#X connect 15 0 5 0;
#X connect 16 0 17 0;
#X connect 17 0 18 0;
#X connect 18 0 15 0;
#X connect 19 0 12 0;
#X connect 19 0 14 0;
#X connect 20 0 8 0;
#X restore 100 304 pd TYchao;
#X connect 0 0 1 0;
#X connect 1 0 4 0;
#X connect 1 0 6 0;
#X connect 1 0 5 0;
#X connect 3 0 2 0;
#X connect 4 0 7 0;
#X connect 5 0 8 0;
#X connect 6 0 9 0;
#X connect 10 0 2 0;
#X restore -26 56 pd chaos;
#N canvas 1243 475 664 597 TYvoice1 0;
#X floatatom 53 -276 10 0 0 0 - - -;
#X floatatom 53 -43 5 0 0 0 - - -;
#X obj 53 -125 * 12;
#X floatatom 108 -162 5 0 0 0 - - -;
#X obj 53 -89 +;
#X floatatom 53 -164 5 0 0 0 - - -;
#X obj 53 -145 int;
#X obj 108 -184 % 7;
#X obj 53 -184 / 7;
#X obj 52 -297 coll chaos;
#C restore;
#X obj 108 -138 tabread majorScale;
#X floatatom 169 -375 5 0 0 0 - - -;
#X floatatom 52 -381 5 0 0 0 - - -;
#X obj 52 -359 pack;
#X msg 52 -321 nth \$2 \$1;
#X text 50 -510 on/off;
#X obj 53 10 outlet;
#X text 54 35 outPut pitch;
#X obj 53 -254 * 36;
#X obj 53 -229 int;
#X obj 52 -408 counter 0 100;
#X text 122 -508 nth;
#X obj 52 -451 tgl 15 0 empty empty empty 17 7 0 10 -262144 -1 -1 0
1;
#X obj 52 -490 inlet;
#X floatatom 116 -460 5 0 0 0 - - -;
#X obj 169 -425 loadbang;
#X msg 169 -401 1;
#X obj 116 -487 inlet;
#X obj 52 -429 metro 150;
#X obj 231 -105 +;
#X obj 244 -486 inlet;
#X floatatom 244 -452 5 0 0 0 - - -;
#X connect 0 0 18 0;
#X connect 1 0 16 0;
#X connect 2 0 4 0;
#X connect 3 0 10 0;
#X connect 4 0 1 0;
#X connect 5 0 6 0;
#X connect 6 0 2 0;
#X connect 7 0 3 0;
#X connect 8 0 5 0;
#X connect 9 0 0 0;
#X connect 10 0 29 0;
#X connect 11 0 13 1;
#X connect 12 0 13 0;
#X connect 13 0 14 0;
#X connect 14 0 9 0;
#X connect 18 0 19 0;
#X connect 19 0 8 0;
#X connect 19 0 7 0;
#X connect 20 0 12 0;
#X connect 22 0 28 0;
#X connect 23 0 22 0;
#X connect 24 0 28 1;
#X connect 25 0 26 0;
#X connect 26 0 11 0;
#X connect 27 0 24 0;
#X connect 28 0 20 0;
#X connect 29 0 4 1;
#X connect 30 0 31 0;
#X connect 31 0 29 1;
#X restore 70 126 pd TYvoice1;
#X obj 70 103 tgl 15 0 empty empty empty 17 7 0 10 -262144 -1 -1 0
1;
#X floatatom 70 147 5 0 0 0 - - -;
#X floatatom 101 106 5 0 0 0 - - -;
#X obj 101 40 bng 15 250 50 0 empty empty empty 17 7 0 10 -262144 -1
-1;
#X floatatom 289 34 5 0 0 0 - - -;
#X text 68 -30 on/off;
#X obj 70 -10 inlet;
#X obj 289 -5 inlet;
#X floatatom 288 141 5 0 0 0 - - -;
#X obj 446 194 t a;
#X obj 446 160 sel 1 0;
#X obj 446 217 line~;
#X obj 446 134 tgl 15 0 empty empty empty 17 7 0 10 -262144 -1 -1 0
1;
#X msg 446 177 1 2000;
#X text 446 111 play or stop;
#X obj 70 417 outlet~;
#X obj 134 417 outlet~;
#X obj 134 223 + 1;
#X obj 149 189 randomF 2;
#X obj 70 347 *~;
#X obj 134 347 *~;
#X obj 70 284 *~ 0.2;
#X obj 134 285 *~ 0.2;
#X obj 245 109 + 30;
#X obj 101 85 - 30;
#X msg 101 62 200;
#X obj 202 69 * 1.8;
#X text 551 9 southint.com;
#X text 550 21 WaterTian;
#X obj 288 162 > 0.6;
#X obj 288 182 sel 0 1;
#X obj 273 225 +;
#X floatatom 273 250 5 0 0 0 - - -;
#X obj 311 226 -;
#X msg 311 207 1.2;
#X obj 289 115 / 120;
#X msg 504 177 0 2000;
#X connect 0 0 27 0;
#X connect 0 1 27 0;
#X connect 1 0 26 0;
#X connect 4 0 6 0;
#X connect 5 0 4 0;
#X connect 6 0 1 0;
#X connect 6 0 22 0;
#X connect 6 0 8 0;
#X connect 7 0 4 1;
#X connect 8 0 23 0;
#X connect 8 0 30 0;
#X connect 9 0 28 0;
#X connect 9 0 31 0;
#X connect 9 0 40 0;
#X connect 11 0 5 0;
#X connect 11 0 17 0;
#X connect 12 0 9 0;
#X connect 13 0 34 0;
#X connect 13 0 36 1;
#X connect 13 0 38 1;
#X connect 14 0 16 0;
#X connect 15 0 18 0;
#X connect 15 1 41 0;
#X connect 16 0 24 1;
#X connect 16 0 25 1;
#X connect 17 0 15 0;
#X connect 18 0 14 0;
#X connect 22 0 0 0;
#X connect 23 0 22 1;
#X connect 24 0 20 0;
#X connect 25 0 21 0;
#X connect 26 0 24 0;
#X connect 26 0 25 0;
#X connect 27 0 24 0;
#X connect 27 0 25 0;
#X connect 28 0 4 2;
#X connect 29 0 7 0;
#X connect 30 0 29 0;
#X connect 31 0 29 1;
#X connect 34 0 35 0;
#X connect 35 0 36 0;
#X connect 35 1 39 0;
#X connect 36 0 37 0;
#X connect 37 0 26 1;
#X connect 37 0 27 1;
#X connect 38 0 37 0;
#X connect 39 0 38 0;
#X connect 40 0 13 0;
#X connect 41 0 14 0;
#X restore 188 468 pd tyHeightVoice;
#N canvas 841 299 666 547 tyRandomLeftRight 0;
#X floatatom 47 18 5 0 0 0 - - -;
#X obj 47 61 line~;
#X obj 105 10 t b f;
#X floatatom 105 75 5 0 0 0 - - -;
#X obj 105 54 -;
#X msg 105 33 1;
#X obj 105 120 line~;
#X msg 47 40 \$1 2000;
#X msg 105 99 \$1 2000;
#X obj 47 -29 randomF 1;
#X obj 47 -7 +;
#X obj 47 -46 bng 15 250 50 0 empty empty empty 17 7 0 10 -262144 -1
-1;
#X floatatom 116 -81 5 0 0 0 - - -;
#X obj 116 -124 random 3000;
#X obj 46 -86 tgl 15 0 empty empty empty 17 7 0 10 -262144 -1 -1 1
1;
#X obj 46 -65 metro 3000;
#X obj 116 -102 + 1000;
#X text 44 -170 on/off;
#X obj 46 -150 inlet;
#X obj 47 186 outlet~;
#X obj 105 186 outlet~;
#X text 277 -151 southint.com;
#X text 276 -139 WaterTian;
#X connect 0 0 7 0;
#X connect 1 0 19 0;
#X connect 2 0 5 0;
#X connect 2 1 4 1;
#X connect 3 0 8 0;
#X connect 4 0 3 0;
#X connect 5 0 4 0;
#X connect 6 0 20 0;
#X connect 7 0 1 0;
#X connect 8 0 6 0;
#X connect 9 0 10 0;
#X connect 10 0 0 0;
#X connect 10 0 2 0;
#X connect 11 0 9 0;
#X connect 12 0 15 1;
#X connect 13 0 16 0;
#X connect 14 0 15 0;
#X connect 15 0 13 0;
#X connect 15 0 11 0;
#X connect 16 0 12 0;
#X connect 18 0 14 0;
#X restore 31 498 pd tyRandomLeftRight;
#X obj 31 474 tgl 15 0 empty empty empty 17 7 0 10 -262144 -1 -1 1
1;
#X obj 284 431 hsl 60 10 0 120 0 0 empty empty empty -2 -8 0 10 -262144
-1 -1 0 1;
#X obj 188 556 *~;
#X obj 225 556 *~;
#X obj 188 439 tgl 15 0 empty empty empty 17 7 0 10 -262144 -1 -1 0
1;
#X obj -165 321 + 40;
#X floatatom 281 357 5 0 0 0 - - -;
#X floatatom -165 341 5 0 0 0 - - -;
#X obj 188 355 change;
#X floatatom 188 335 5 0 0 0 - - -;
#X obj -213 215 - 28;
#X obj 382 476 bng 15 250 50 0 empty empty empty 0 -6 0 8 -24198 -1
-1;
#X obj 383 516 readsf~;
#X msg 383 493 open sound/huayangling.wav \, 1;
#X obj 382 452 tgl 15 0 empty empty empty 17 7 0 10 -262144 -1 -1 0
1;
#X obj 382 324 change;
#X floatatom 382 304 5 0 0 0 - - -;
#X obj -266 562 *~ 2;
#X obj -229 563 *~ 2;
#X obj 31 445 loadbang;
#X obj -190 -5 loadbang;
#X obj 188 315 > 3;
#X obj 281 313 - 3;
#X obj 281 406 line;
#X msg 281 384 \$1 200;
#X obj 281 335 * 9;
#X obj 383 547 *~ 0.6;
#X obj 382 284 > 12;
#X obj -165 389 line;
#X msg -165 367 \$1 200;
#X obj -165 300 * 0.8;
#X obj -109 446 - 40;
#X obj -57 468 sel 0 1;
#X obj -66 493 +;
#X floatatom -66 522 5 0 0 0 - - -;
#X obj -165 508 *~;
#X obj -109 466 / 2;
#X obj -57 448 > 0.4;
#X msg -34 493 0.4;
#X connect 0 0 1 0;
#X connect 2 0 21 0;
#X connect 3 0 5 0;
#X connect 4 0 5 0;
#X connect 5 0 6 0;
#X connect 5 1 7 0;
#X connect 6 0 46 0;
#X connect 11 0 13 0;
#X connect 12 0 5 0;
#X connect 13 0 4 0;
#X connect 14 0 5 0;
#X connect 15 0 16 0;
#X connect 15 0 57 0;
#X connect 15 0 58 0;
#X connect 15 0 63 0;
#X connect 15 0 66 0;
#X connect 16 0 18 0;
#X connect 17 0 2 0;
#X connect 18 0 17 0;
#X connect 21 0 33 0;
#X connect 21 0 53 0;
#X connect 21 1 32 0;
#X connect 21 1 54 0;
#X connect 23 0 28 0;
#X connect 24 0 25 0;
#X connect 25 0 71 0;
#X connect 26 0 22 0;
#X connect 27 0 22 1;
#X connect 28 0 24 0;
#X connect 28 0 67 0;
#X connect 29 0 69 1;
#X connect 29 0 73 0;
#X connect 30 0 26 1;
#X connect 31 0 27 1;
#X connect 32 0 30 0;
#X connect 33 0 31 0;
#X connect 34 0 38 0;
#X connect 34 1 39 0;
#X connect 35 0 30 1;
#X connect 35 0 38 1;
#X connect 35 1 31 1;
#X connect 35 1 39 1;
#X connect 36 0 35 0;
#X connect 37 0 34 1;
#X connect 38 0 26 1;
#X connect 39 0 27 1;
#X connect 40 0 34 0;
#X connect 41 0 43 0;
#X connect 42 0 60 0;
#X connect 43 0 65 0;
#X connect 44 0 40 0;
#X connect 45 0 44 0;
#X connect 46 0 15 0;
#X connect 47 0 49 0;
#X connect 48 0 62 0;
#X connect 49 0 48 0;
#X connect 50 0 47 0;
#X connect 51 0 50 0;
#X connect 52 0 51 0;
#X connect 53 0 26 0;
#X connect 54 0 27 0;
#X connect 55 0 36 0;
#X connect 56 0 12 0;
#X connect 57 0 45 0;
#X connect 58 0 61 0;
#X connect 59 0 37 0;
#X connect 60 0 59 0;
#X connect 61 0 42 0;
#X connect 62 0 26 1;
#X connect 62 0 27 1;
#X connect 63 0 52 0;
#X connect 64 0 23 0;
#X connect 65 0 64 0;
#X connect 66 0 41 0;
#X connect 67 0 72 0;
#X connect 68 0 69 0;
#X connect 68 1 74 0;
#X connect 69 0 70 0;
#X connect 70 0 71 1;
#X connect 71 0 32 1;
#X connect 71 0 33 1;
#X connect 72 0 29 0;
#X connect 73 0 68 0;
#X connect 74 0 70 0;
