#N canvas 347 62 730 711 10;
#X declare -lib moocow;
#X obj -272 35 loadbang;
#X msg -272 56 \; pd dsp 1;
#X obj -267 442 tgl 15 0 empty empty empty 17 7 0 10 -262144 -1 -1
1 1;
#X msg -267 143 close;
#X floatatom -117 143 5 0 255 0 - - -;
#X obj -213 159 touche_serial;
#X floatatom -213 191 5 0 0 0 - - -;
#X floatatom -138 190 5 0 0 0 - - -;
#X text -77 132 0 = no smoothing \, fast updates;
#X text -76 120 signal smoothing (0..255);
#X text -77 145 255 = smooth signal \, very slow updates;
#X obj -117 102 loadbang;
#X msg -117 58 devicename /dev/cu.usbmodem1411;
#X msg -117 121 0.9;
#X msg -117 29 devicename /dev/cu.usbmodem1421;
#X floatatom -213 238 5 0 0 0 - - -;
#X obj -267 287 > 0;
#X obj -267 327 change;
#X floatatom -267 307 5 0 0 0 - - -;
#X text 301 77 southint.com;
#X text 300 89 WaterTian;
#X obj -267 462 tySound;
#X obj -260 684 dac~;
#X obj -213 215 - 34;
#N canvas 468 240 828 488 drums 0;
#N canvas 560 317 450 300 bd 0;
#X obj 83 -2 inlet;
#X obj 94 185 outlet~;
#X obj 96 149 osc~;
#X obj 95 128 mtof~;
#X obj 95 105 +~ 28;
#X obj 96 80 line~;
#X obj 105 29 t b b;
#X obj 75 51 0 100;
#X obj 125 51 32 0;
#X obj 195 29 t b b;
#X obj 165 51 0 500;
#X obj 216 51 1 0;
#X obj 157 153 *~;
#X obj 201 86 line~;
#X connect 0 0 6 0;
#X connect 0 0 9 0;
#X connect 2 0 12 0;
#X connect 3 0 2 0;
#X connect 4 0 3 0;
#X connect 5 0 4 0;
#X connect 6 0 7 0;
#X connect 6 1 8 0;
#X connect 7 0 5 0;
#X connect 8 0 5 0;
#X connect 9 0 10 0;
#X connect 9 1 11 0;
#X connect 10 0 13 0;
#X connect 11 0 13 0;
#X connect 12 0 1 0;
#X connect 13 0 12 1;
#X restore 200 207 pd bd;
#N canvas 0 22 492 401 hh 0;
#X obj 171 53 inlet;
#X obj 176 208 line~;
#X obj 188 140 t b b;
#X obj 208 170 1 0;
#X obj 64 177 noise~;
#X obj 101 243 *~;
#X obj 68 207 svf~ 9900 0.5;
#X obj 168 174 0 25;
#X obj 117 278 /~ 2;
#X obj 121 312 outlet~;
#X connect 0 0 2 0;
#X connect 1 0 5 1;
#X connect 2 0 7 0;
#X connect 2 1 3 0;
#X connect 3 0 1 0;
#X connect 4 0 6 0;
#X connect 5 0 8 0;
#X connect 6 1 5 0;
#X connect 7 0 1 0;
#X connect 8 0 9 0;
#X restore 340 208 pd hh;
#X obj 196 254 outlet~;
#X obj 226 6 metro 150;
#X obj 226 39 i;
#X obj 265 38 + 1;
#X obj 214 114 select 0 1 2 3 4 5 6 7 8 9 10 11 12 13 14 15;
#X obj 220 85 % 16;
#X obj 106 115 bng 15 75 50 0 empty empty empty 17 7 0 10 -262144 -258113
-1;
#X obj 126 115 bng 15 75 50 0 empty empty empty 17 7 0 10 -262144 -4034
-1;
#X obj 146 115 bng 15 75 50 0 empty empty empty 17 7 0 10 -262144 -4160
-1;
#X text 105 101 BD;
#X text 125 101 SD;
#X text 145 101 HH;
#N canvas 560 317 450 300 sd 0;
#X obj 83 -2 inlet;
#X obj 94 185 outlet~;
#X obj 96 149 osc~;
#X obj 95 128 mtof~;
#X obj 96 80 line~;
#X obj 105 29 t b b;
#X obj 195 29 t b b;
#X obj 216 51 1 0;
#X obj 157 153 *~;
#X obj 201 86 line~;
#X obj 285 29 t b b;
#X obj 306 51 1 0;
#X obj 291 86 line~;
#X obj 355 93 noise~;
#X obj 289 126 *~;
#X obj 125 51 12 0;
#X obj 95 105 +~ 55;
#X obj 75 51 0 25;
#X obj 165 51 0 100;
#X obj 255 51 0 150;
#X connect 0 0 5 0;
#X connect 0 0 6 0;
#X connect 0 0 10 0;
#X connect 2 0 8 0;
#X connect 3 0 2 0;
#X connect 4 0 16 0;
#X connect 5 0 17 0;
#X connect 5 1 15 0;
#X connect 6 0 18 0;
#X connect 6 1 7 0;
#X connect 7 0 9 0;
#X connect 8 0 1 0;
#X connect 9 0 8 1;
#X connect 10 0 19 0;
#X connect 10 1 11 0;
#X connect 11 0 12 0;
#X connect 12 0 14 0;
#X connect 13 0 14 1;
#X connect 14 0 1 0;
#X connect 15 0 4 0;
#X connect 16 0 3 0;
#X connect 17 0 4 0;
#X connect 18 0 9 0;
#X connect 19 0 12 0;
#X restore 270 207 pd sd;
#X obj 80 208 freeverb~;
#X obj 257 231 clip~ -0.5 0.5;
#X obj 162 233 /~ 3;
#X obj 108 239 /~ 3;
#X obj 350 257 /~ 5;
#X obj 226 -41 inlet;
#X connect 0 0 16 0;
#X connect 0 0 19 0;
#X connect 1 0 19 0;
#X connect 3 0 4 0;
#X connect 4 0 5 0;
#X connect 4 0 7 0;
#X connect 5 0 4 1;
#X connect 6 0 0 0;
#X connect 6 0 1 0;
#X connect 6 0 8 0;
#X connect 6 0 10 0;
#X connect 6 1 0 0;
#X connect 6 1 8 0;
#X connect 6 2 1 0;
#X connect 6 2 10 0;
#X connect 6 3 1 0;
#X connect 6 3 10 0;
#X connect 6 4 1 0;
#X connect 6 4 14 0;
#X connect 6 4 10 0;
#X connect 6 4 9 0;
#X connect 6 6 1 0;
#X connect 6 6 10 0;
#X connect 6 8 1 0;
#X connect 6 8 10 0;
#X connect 6 9 14 0;
#X connect 6 9 9 0;
#X connect 6 10 1 0;
#X connect 6 10 0 0;
#X connect 6 10 10 0;
#X connect 6 10 8 0;
#X connect 6 12 14 0;
#X connect 6 12 1 0;
#X connect 6 12 9 0;
#X connect 6 12 10 0;
#X connect 6 14 1 0;
#X connect 6 14 10 0;
#X connect 7 0 6 0;
#X connect 14 0 15 0;
#X connect 14 0 15 1;
#X connect 14 0 17 0;
#X connect 15 0 18 0;
#X connect 16 0 19 0;
#X connect 17 0 2 0;
#X connect 18 0 2 0;
#X connect 19 0 2 0;
#X connect 20 0 3 0;
#X coords 0 -1 1 1 70 40 2 100 100;
#X restore 284 178 pd drums;
#X obj 302 228 hsl 128 15 0 127 0 0 empty empty empty -2 -8 0 10 -262144
-1 -1 0 1;
#X obj 299 248 mtof;
#X obj 285 300 *~;
#X obj 284 150 tgl 15 0 empty empty empty 0 -6 0 8 -24198 -1 -1 0 1
;
#X obj 244 211 * 8;
#X obj 244 187 - 21;
#X obj 299 269 osc~;
#X obj -94 402 hsl 128 15 34 72 0 0 empty empty empty -2 -8 0 10 -262144
-1 -1 3700 1;
#X obj -97 440 mtof;
#X obj -97 461 osc~;
#X obj -265 646 +~;
#X obj -230 647 +~;
#X floatatom -97 421 5 0 0 0 - - -;
#X floatatom 2 468 5 0 0 0 - - -;
#X floatatom 77 461 5 0 0 0 - - -;
#X obj 77 504 line~;
#X obj 135 453 t b f;
#X floatatom 135 518 5 0 0 0 - - -;
#X obj 135 497 -;
#X msg 135 476 1;
#X obj 135 563 line~;
#X msg 77 483 \$1 2000;
#X msg 135 542 \$1 2000;
#X obj 77 414 randomF 1;
#X obj 77 436 +;
#X obj -112 580 *~;
#X obj -75 580 *~;
#X obj 77 397 bng 15 250 50 0 empty empty empty 17 7 0 10 -262144 -1
-1;
#X floatatom 146 362 5 0 0 0 - - -;
#X obj 146 319 random 3000;
#X obj 76 357 tgl 15 0 empty empty empty 17 7 0 10 -262144 -1 -1 1
1;
#X obj 76 378 metro 3000;
#X obj 146 341 + 1000;
#X obj -113 605 *~ 2;
#X obj -75 606 *~ 2;
#X obj -112 533 +~;
#X obj -75 534 +~;
#X obj -97 499 *~ 0.3;
#X obj 2 437 / 40;
#X obj 76 331 loadbang;
#X connect 0 0 1 0;
#X connect 2 0 21 0;
#X connect 3 0 5 0;
#X connect 4 0 5 0;
#X connect 5 0 6 0;
#X connect 5 1 7 0;
#X connect 6 0 23 0;
#X connect 11 0 13 0;
#X connect 12 0 5 0;
#X connect 13 0 4 0;
#X connect 14 0 5 0;
#X connect 15 0 16 0;
#X connect 16 0 18 0;
#X connect 17 0 2 0;
#X connect 18 0 17 0;
#X connect 21 0 35 0;
#X connect 21 0 61 0;
#X connect 21 1 36 0;
#X connect 21 1 60 0;
#X connect 23 0 15 0;
#X connect 24 0 27 0;
#X connect 25 0 26 0;
#X connect 26 0 31 0;
#X connect 28 0 24 0;
#X connect 29 0 25 0;
#X connect 30 0 29 0;
#X connect 31 0 27 1;
#X connect 32 0 37 0;
#X connect 33 0 34 0;
#X connect 34 0 62 0;
#X connect 35 0 22 0;
#X connect 36 0 22 1;
#X connect 37 0 33 0;
#X connect 37 0 63 0;
#X connect 38 0 59 1;
#X connect 38 0 58 1;
#X connect 39 0 46 0;
#X connect 40 0 50 1;
#X connect 41 0 44 0;
#X connect 41 1 43 1;
#X connect 42 0 47 0;
#X connect 43 0 42 0;
#X connect 44 0 43 0;
#X connect 45 0 51 1;
#X connect 46 0 40 0;
#X connect 47 0 45 0;
#X connect 48 0 49 0;
#X connect 49 0 39 0;
#X connect 49 0 41 0;
#X connect 50 0 58 0;
#X connect 51 0 59 0;
#X connect 52 0 48 0;
#X connect 53 0 56 1;
#X connect 54 0 57 0;
#X connect 55 0 56 0;
#X connect 56 0 54 0;
#X connect 56 0 52 0;
#X connect 57 0 53 0;
#X connect 58 0 35 1;
#X connect 59 0 36 1;
#X connect 60 0 50 0;
#X connect 61 0 51 0;
#X connect 62 0 60 1;
#X connect 62 0 61 1;
#X connect 63 0 38 0;
#X connect 64 0 55 0;
