#N canvas 258 531 969 695 10;
#X declare -lib moocow;
#X obj -272 35 loadbang;
#X obj -263 469 dac~;
#X msg -272 56 \; pd dsp 1;
#X obj -267 382 tgl 15 0 empty empty empty 17 7 0 10 -262144 -1 -1
1 1;
#X msg -267 143 close;
#X floatatom -117 143 5 0 255 0 - - -;
#X obj -213 159 touche_serial;
#X floatatom -213 191 5 0 0 0 - - -;
#X floatatom -138 190 5 0 0 0 - - -;
#X text -77 132 0 = no smoothing \, fast updates;
#X text -76 120 signal smoothing (0..255);
#X text -77 145 255 = smooth signal \, very slow updates;
#X obj -117 102 loadbang;
#X msg -117 58 devicename /dev/cu.usbmodem1411;
#X msg -117 121 0.9;
#X msg -117 29 devicename /dev/cu.usbmodem1421;
#X obj -213 215 - 17;
#X floatatom -213 238 5 0 0 0 - - -;
#X obj -267 287 > 0;
#X obj -267 327 change;
#X floatatom -267 307 5 0 0 0 - - -;
#X text 301 77 southint.com;
#X text 300 89 WaterTian;
#X obj -267 402 tySound;
#X obj -135 362 hsl 128 15 0 32 0 0 empty empty empty -2 -8 0 10 -204786
-1 -1 0 1;
#X floatatom -138 387 5 0 0 0 - - -;
#X connect 0 0 2 0;
#X connect 3 0 23 0;
#X connect 4 0 6 0;
#X connect 5 0 6 0;
#X connect 6 0 7 0;
#X connect 6 1 8 0;
#X connect 7 0 16 0;
#X connect 12 0 14 0;
#X connect 13 0 6 0;
#X connect 14 0 5 0;
#X connect 15 0 6 0;
#X connect 16 0 17 0;
#X connect 17 0 18 0;
#X connect 17 0 24 0;
#X connect 18 0 20 0;
#X connect 19 0 3 0;
#X connect 20 0 19 0;
#X connect 23 0 1 0;
#X connect 23 1 1 1;
#X connect 24 0 25 0;
#X connect 25 0 23 1;
