#N canvas 1001 600 730 711 10;
#X declare -lib moocow;
#X obj -272 35 loadbang;
#X msg -272 56 \; pd dsp 1;
#X obj -267 442 tgl 15 0 empty empty empty 17 7 0 10 -262144 -1 -1
0 1;
#X msg -267 143 close;
#X floatatom -117 143 5 0 255 0 - - -;
#X obj -213 159 touche_serial;
#X floatatom -213 191 5 0 0 0 - - -;
#X floatatom -138 190 5 0 0 0 - - -;
#X text -77 132 0 = no smoothing \, fast updates;
#X text -76 120 signal smoothing (0..255);
#X text -77 145 255 = smooth signal \, very slow updates;
#X obj -117 102 loadbang;
#X msg -117 58 devicename /dev/cu.usbmodem1411;
#X msg -117 121 0.9;
#X msg -117 29 devicename /dev/cu.usbmodem1421;
#X floatatom -213 238 5 0 0 0 - - -;
#X obj -267 287 > 0;
#X obj -267 327 change;
#X floatatom -267 307 5 0 0 0 - - -;
#X text 301 77 southint.com;
#X text 300 89 WaterTian;
#X obj -267 462 tySound;
#X floatatom -168 310 5 0 0 0 - - -;
#X obj -220 684 dac~;
#X obj -225 646 *~;
#X obj -190 647 *~;
#X obj -167 582 line~;
#X obj -167 541 pipe 250;
#X obj -167 498 expr ($f1*$f1)/10000;
#X obj -167 520 expr if ($f1 > 0.9 \, 0.9 \, $f1);
#X obj -165 350 snapshot~;
#X obj -165 392 div;
#X floatatom -165 418 5 0 0 0 - - -;
#X obj -165 371 + 10.5;
#X obj -165 465 f;
#X obj -165 442 pipe 250;
#X obj -65 295 tgl 15 0 empty empty empty 17 7 0 10 -262144 -1 -1 1
1;
#X obj -66 321 metro 150;
#X obj -168 285 * 5;
#X msg -167 565 \$1 500;
#X obj -213 215 - 34;
#X connect 0 0 1 0;
#X connect 2 0 21 0;
#X connect 3 0 5 0;
#X connect 4 0 5 0;
#X connect 5 0 6 0;
#X connect 5 1 7 0;
#X connect 6 0 40 0;
#X connect 11 0 13 0;
#X connect 12 0 5 0;
#X connect 13 0 4 0;
#X connect 14 0 5 0;
#X connect 15 0 16 0;
#X connect 15 0 38 0;
#X connect 16 0 18 0;
#X connect 17 0 2 0;
#X connect 18 0 17 0;
#X connect 21 0 24 0;
#X connect 21 1 25 0;
#X connect 22 0 30 0;
#X connect 24 0 23 0;
#X connect 25 0 23 1;
#X connect 26 0 24 1;
#X connect 26 0 25 1;
#X connect 27 0 39 0;
#X connect 28 0 29 0;
#X connect 29 0 27 0;
#X connect 30 0 33 0;
#X connect 31 0 32 0;
#X connect 32 0 35 0;
#X connect 33 0 31 0;
#X connect 34 0 28 0;
#X connect 35 0 34 0;
#X connect 36 0 37 0;
#X connect 37 0 30 0;
#X connect 38 0 22 0;
#X connect 39 0 26 0;
#X connect 40 0 15 0;
