#N canvas 33 331 706 555 10;
#N canvas 506 255 624 706 pads 0;
#X obj 163 17 inlet;
#N canvas 916 429 450 300 4phasebloc 0;
#X obj 147 82 mtof;
#X obj 147 55 inlet;
#X obj 137 189 outlet~;
#X obj 148 114 phasor~ 300;
#X obj 62 82 mtof;
#X obj 62 55 inlet;
#X obj 63 114 phasor~ 300;
#X obj 137 156 *~ 0.2;
#X connect 0 0 3 0;
#X connect 1 0 0 0;
#X connect 3 0 7 0;
#X connect 4 0 6 0;
#X connect 5 0 4 0;
#X connect 6 0 7 0;
#X connect 7 0 2 0;
#X restore 127 262 pd 4phasebloc;
#N canvas 907 479 450 300 4phasebloc 0;
#X obj 148 114 phasor~ 300;
#X obj 147 82 mtof;
#X obj 147 53 inlet;
#X obj 137 189 outlet~;
#X obj 63 114 phasor~ 300;
#X obj 62 82 mtof;
#X obj 62 53 inlet;
#X obj 137 155 *~ 0.2;
#X connect 0 0 7 0;
#X connect 1 0 0 0;
#X connect 2 0 1 0;
#X connect 4 0 7 0;
#X connect 5 0 4 0;
#X connect 6 0 5 0;
#X connect 7 0 3 0;
#X restore 230 262 pd 4phasebloc;
#X obj 35 125 random 100;
#X obj 35 167 line;
#X obj 35 63 loadbang;
#X msg 35 83 1;
#X obj 36 212 -;
#X msg 36 189 100;
#X obj 12 237 * 10;
#X obj 13 260 + 500;
#X obj 127 301 bp~ 500 3;
#X obj 53 236 * 10;
#X obj 223 300 bp~ 600 4;
#X obj 54 259 + 700;
#X obj 11 299 / 100;
#X obj 53 298 / 100;
#X obj 11 322 + 0.1;
#X obj 13 481 *~;
#X obj 57 321 + 0.1;
#X obj 66 481 *~;
#X obj 126 347 delwrite~ \$0-ffff 100;
#X obj 446 267 delread~ \$0-ffff 100;
#X obj 446 242 env~;
#X obj 126 324 *~ 0.7;
#X obj 13 604 outlet~;
#X obj 66 602 outlet~;
#X obj 171 228 + 24;
#X obj 236 224 + 24;
#X obj 447 218 osc~ 0.03;
#X floatatom 400 83 5 0 0 0 - - -;
#X obj 400 38 inlet;
#X msg 35 145 \$1 1000;
#X floatatom 447 198 5 0 0 0 - - -;
#X obj 447 153 metro 10000;
#X obj 447 174 randomF 0.06;
#X msg 351 80 60;
#X obj 127 226 + 24;
#X obj 127 204 +;
#X obj 236 202 + 3;
#X obj 281 223 + 24;
#X obj 281 201 + 7;
#X obj 171 206 + 1;
#X floatatom 448 394 5 0 0 0 - - -;
#X obj 448 369 + 0.2;
#X obj 448 347 randomF 0.8;
#X obj 448 437 line~;
#X obj 516 386 t b f;
#X floatatom 516 451 5 0 0 0 - - -;
#X obj 516 430 -;
#X msg 516 409 1;
#X obj 516 496 line~;
#X obj 65 539 *~;
#X obj 12 540 *~;
#X obj 448 324 metro 8000;
#X msg 448 416 \$1 4000;
#X msg 516 475 \$1 4000;
#X obj 35 104 metro 2000;
#X obj 163 40 unpack f f f f;
#X connect 0 0 58 0;
#X connect 1 0 11 0;
#X connect 2 0 13 0;
#X connect 3 0 32 0;
#X connect 4 0 7 1;
#X connect 4 0 8 0;
#X connect 4 0 9 0;
#X connect 4 0 15 0;
#X connect 5 0 6 0;
#X connect 5 0 36 0;
#X connect 6 0 34 0;
#X connect 6 0 54 0;
#X connect 6 0 57 0;
#X connect 7 0 12 0;
#X connect 7 0 16 0;
#X connect 8 0 7 0;
#X connect 9 0 10 0;
#X connect 10 0 11 1;
#X connect 11 0 24 0;
#X connect 12 0 14 0;
#X connect 13 0 18 0;
#X connect 14 0 13 1;
#X connect 15 0 17 0;
#X connect 16 0 19 0;
#X connect 17 0 18 1;
#X connect 18 0 53 0;
#X connect 19 0 20 1;
#X connect 20 0 52 0;
#X connect 22 0 20 0;
#X connect 23 0 22 0;
#X connect 24 0 21 0;
#X connect 27 0 1 1;
#X connect 28 0 2 0;
#X connect 29 0 23 0;
#X connect 30 0 28 1;
#X connect 30 0 27 1;
#X connect 30 0 37 1;
#X connect 30 0 40 1;
#X connect 31 0 30 0;
#X connect 32 0 4 0;
#X connect 33 0 29 0;
#X connect 34 0 35 0;
#X connect 35 0 33 0;
#X connect 36 0 30 0;
#X connect 37 0 1 0;
#X connect 38 0 37 0;
#X connect 39 0 28 0;
#X connect 40 0 2 1;
#X connect 41 0 40 0;
#X connect 42 0 27 0;
#X connect 43 0 55 0;
#X connect 44 0 43 0;
#X connect 44 0 47 0;
#X connect 45 0 44 0;
#X connect 46 0 53 1;
#X connect 47 0 50 0;
#X connect 47 1 49 1;
#X connect 48 0 56 0;
#X connect 49 0 48 0;
#X connect 50 0 49 0;
#X connect 51 0 52 1;
#X connect 52 0 26 0;
#X connect 53 0 25 0;
#X connect 54 0 45 0;
#X connect 55 0 46 0;
#X connect 56 0 51 0;
#X connect 57 0 3 0;
#X connect 58 0 38 0;
#X connect 58 1 42 0;
#X connect 58 2 39 0;
#X connect 58 3 41 0;
#X coords 0 -1 1 1 120 30 1 100 100;
#X restore 57 156 pd pads;
#X floatatom 105 57 5 0 0 0 - - -;
#X obj 63 330 *~;
#X obj 116 330 *~;
#X obj 58 -37 inlet;
#X obj 62 382 outlet~;
#X obj 117 382 outlet~;
#X obj 380 5 bng 15 250 50 0 empty empty empty 17 7 0 10 -262144 -1
-1;
#X obj 284 166 line;
#X obj 287 188 hsl 80 12 0 1 0 0 empty empty empty -2 -8 0 10 -262144
-1 -1 7900 1;
#X obj 284 143 t a;
#X obj 378 -17 t b;
#X obj 279 -7 loadbang;
#X obj 279 40 + 42;
#X msg 380 121 0 3000;
#X msg 284 120 1 3000;
#X obj 380 70 + 2000;
#X obj 279 20 random 28;
#X obj 380 45 random 6000;
#X obj 380 99 delay 3000;
#X connect 0 0 2 0;
#X connect 0 1 3 0;
#X connect 1 0 0 1;
#X connect 2 0 5 0;
#X connect 3 0 6 0;
#X connect 4 0 11 0;
#X connect 4 0 0 0;
#X connect 7 0 15 0;
#X connect 7 0 17 0;
#X connect 7 0 18 0;
#X connect 8 0 9 0;
#X connect 9 0 2 1;
#X connect 9 0 3 1;
#X connect 10 0 8 0;
#X connect 11 0 7 0;
#X connect 12 0 17 0;
#X connect 13 0 1 0;
#X connect 14 0 10 0;
#X connect 15 0 10 0;
#X connect 16 0 19 0;
#X connect 17 0 13 0;
#X connect 18 0 16 0;
#X connect 19 0 14 0;
#X coords 0 -1 1 1 80 30 1 60 50;
