#N canvas 1036 325 1292 945 10;
#X msg -248 217 bang;
#X msg -248 502 10 1 0 9 1;
#N canvas 673 261 842 656 noise2 0;
#X obj 12 126 noise~;
#X obj 160 258 *~;
#X obj 175 218 line;
#X obj 175 195 t a b;
#X obj 178 240 hsl 80 12 0 1 0 0 empty empty empty -2 -8 0 10 -262144
-1 -1 0 1;
#X obj 233 172 delay 600;
#X obj 12 150 *~ 0.1;
#X obj 140 5 inlet;
#X obj 143 39 bng 15 250 50 0 empty empty empty 17 7 0 10 -262144 -1
-1;
#X obj 55 102 randomF 0.1;
#X floatatom 55 123 5 0 0 0 - - -;
#X obj 175 89 random 1000;
#X floatatom 175 130 5 0 0 0 - - -;
#X obj 175 111 + 300;
#X obj 165 458 outlet~;
#X obj 218 456 outlet~;
#X floatatom 402 169 5 0 0 0 - - -;
#X obj 402 212 line~;
#X obj 470 161 t b f;
#X floatatom 470 226 5 0 0 0 - - -;
#X obj 470 205 -;
#X msg 470 184 1;
#X obj 470 271 line~;
#X obj 217 393 *~;
#X obj 164 394 *~;
#X msg 402 191 \$1 2000;
#X msg 470 250 \$1 2000;
#X msg 231 196 0 3000;
#X obj 402 122 randomF 1;
#X obj 402 144 +;
#X msg 175 172 1 \$1;
#X connect 0 0 6 0;
#X connect 1 0 24 0;
#X connect 1 0 23 0;
#X connect 2 0 4 0;
#X connect 3 0 2 0;
#X connect 3 1 5 0;
#X connect 4 0 1 1;
#X connect 5 0 27 0;
#X connect 6 0 1 0;
#X connect 7 0 8 0;
#X connect 8 0 9 0;
#X connect 8 0 11 0;
#X connect 8 0 28 0;
#X connect 9 0 10 0;
#X connect 10 0 6 1;
#X connect 11 0 13 0;
#X connect 12 0 30 0;
#X connect 12 0 5 0;
#X connect 13 0 12 0;
#X connect 16 0 25 0;
#X connect 17 0 24 1;
#X connect 18 0 21 0;
#X connect 18 1 20 1;
#X connect 19 0 26 0;
#X connect 20 0 19 0;
#X connect 21 0 20 0;
#X connect 22 0 23 1;
#X connect 23 0 15 0;
#X connect 24 0 14 0;
#X connect 25 0 17 0;
#X connect 26 0 22 0;
#X connect 27 0 2 0;
#X connect 28 0 29 0;
#X connect 29 0 16 0;
#X connect 29 0 18 0;
#X connect 30 0 3 0;
#X restore 334 536 pd noise2;
#X obj 334 515 bng 15 250 50 0 empty empty empty 17 7 0 10 -262144
-1 -1;
#X obj -237 753 +~;
#X obj -285 753 +~;
#X msg -159 503 10 1 0 9 1;
#X msg -70 502 10 1 0 9 1;
#X msg 20 503 10 1 0 9 1;
#X obj -138 62 tgl 15 0 empty empty empty 17 7 0 10 -262144 -1 -1 1
1;
#X obj -248 477 bng 15 250 50 0 empty empty empty 17 7 0 10 -262144
-1 -1;
#X obj -159 479 bng 15 250 50 0 empty empty empty 17 7 0 10 -262144
-1 -1;
#X obj -70 480 bng 15 250 50 0 empty empty empty 17 7 0 10 -262144
-1 -1;
#X obj 20 483 bng 15 250 50 0 empty empty empty 17 7 0 10 -262144 -1
-1;
#X msg 110 500 10 1 0 9 1;
#X obj 110 481 bng 15 250 50 0 empty empty empty 17 7 0 10 -262144
-1 -1;
#X floatatom 404 376 5 0 0 0 - - -;
#X obj 334 392 metro 8000;
#X obj 730 475 t a;
#X obj 730 441 sel 1 0;
#X obj 730 498 line~;
#X obj -236 845 *~;
#X obj -284 845 *~;
#X obj 730 415 tgl 15 0 empty empty empty 17 7 0 10 -262144 -1 -1 1
1;
#X msg 730 458 1 2000;
#X obj -284 895 outlet~;
#X obj -235 895 outlet~;
#X obj -138 35 inlet;
#X obj -66 247 random 14;
#X obj -127 248 random 14;
#X obj -188 248 random 14;
#X obj -248 248 random 14;
#X msg 788 458 0 2000;
#X text 730 392 play or stop;
#X text -287 31 southint.com;
#X text -288 43 WaterTian;
#X obj 68 37 inlet;
#X floatatom 68 66 5 0 0 0 - - -;
#X obj -248 525 typad;
#X obj -248 187 metro 5000;
#X msg 200 500 10 1 0 9 1;
#X obj 200 481 bng 15 250 50 0 empty empty empty 17 7 0 10 -262144
-1 -1;
#X obj -6 247 random 14;
#X obj -248 291 pack f f f f f;
#X msg -248 314 \$1 \$2 \$3 \$4 \$5;
#X msg -248 336 set \$1 \$2 \$3 \$4 \$5;
#X obj 73 343 sel 0 1 2 3 4 5;
#X floatatom 130 227 5 0 0 0 - - -;
#X obj 73 272 bng 15 250 50 0 empty empty empty 17 7 0 10 -262144 -1
-1;
#X obj 73 247 metro 8000;
#X obj 130 184 random 10000;
#X obj 73 293 f 0;
#X obj 99 293 + 1;
#N canvas 206 265 843 990 arper 0;
#X obj 78 173 unpack 1 2 3 4 5 6 7 8 9 10 11;
#X obj 66 410 random 100;
#X obj 66 452 line;
#X obj 66 345 loadbang;
#X msg 66 365 1;
#X obj 66 389 metro 1000;
#X msg 66 430 \$1 1000;
#X obj 72 504 -;
#X msg 67 481 100;
#X obj 64 526 / 100;
#X obj 106 525 / 100;
#X obj 64 549 + 0.1;
#X obj 91 580 *~;
#X obj 110 548 + 0.1;
#X obj 121 580 *~;
#X obj 72 871 outlet~;
#X obj 135 872 outlet~;
#X obj 144 6 inlet;
#X obj 169 316 osc~;
#X obj 160 583 delread~ \$0-gggg 100;
#X obj 154 423 *~ 0.5;
#X obj 157 508 delread~ \$0-gggg 100;
#X obj 111 658 delwrite~ \$0-gggg 200;
#N canvas 0 22 450 300 lagfo 0;
#X obj 66 127 env~;
#X obj 74 58 cos~;
#X obj 71 81 sqrt~;
#X obj 68 105 sqrt~;
#X obj 75 37 phasor~ 0.03;
#X obj 77 7 inlet;
#X obj 65 197 outlet;
#X obj 65 168 line;
#X msg 65 148 \$1 3002;
#X connect 0 0 8 0;
#X connect 1 0 2 0;
#X connect 2 0 3 0;
#X connect 3 0 0 0;
#X connect 4 0 1 0;
#X connect 5 0 4 0;
#X connect 7 0 6 0;
#X connect 8 0 7 0;
#X restore 160 559 pd lagfo;
#X msg 158 465 0.2;
#X msg 160 537 0.13;
#N canvas 0 22 450 300 lagfo 0;
#X obj 66 127 env~;
#X obj 74 58 cos~;
#X obj 71 81 sqrt~;
#X obj 68 105 sqrt~;
#X obj 75 37 phasor~ 0.03;
#X obj 77 7 inlet;
#X obj 65 197 outlet;
#X obj 65 168 line;
#X msg 65 148 \$1 3002;
#X connect 0 0 8 0;
#X connect 1 0 2 0;
#X connect 2 0 3 0;
#X connect 3 0 0 0;
#X connect 4 0 1 0;
#X connect 5 0 4 0;
#X connect 7 0 6 0;
#X connect 8 0 7 0;
#X restore 158 486 pd lagfo;
#X obj 154 402 *~;
#N canvas 0 22 450 300 enver 0;
#X obj 79 137 line~;
#X msg 66 38 bang;
#X obj 77 160 *~;
#X obj 78 181 *~;
#X obj 66 13 inlet;
#X obj 78 205 outlet~;
#X obj 109 115 pack 1 2;
#X msg 105 92 0;
#X obj 159 11 inlet;
#X msg 66 92 1 1;
#X obj 105 71 del 2;
#X connect 0 0 2 0;
#X connect 0 0 2 1;
#X connect 1 0 9 0;
#X connect 1 0 10 0;
#X connect 2 0 3 0;
#X connect 2 0 3 1;
#X connect 3 0 5 0;
#X connect 4 0 1 0;
#X connect 6 0 0 0;
#X connect 7 0 6 0;
#X connect 8 0 6 1;
#X connect 9 0 0 0;
#X connect 10 0 7 0;
#X restore 153 341 pd enver;
#X obj 41 201 f;
#X obj 70 201 f;
#X obj 99 201 f;
#X obj 128 201 f;
#X obj 156 200 f;
#X obj 185 200 f;
#X obj 214 200 f;
#X obj 243 200 f;
#X obj 273 200 f;
#X obj 302 200 f;
#X obj 331 200 f;
#X obj 121 143 select 0 1 2 3 4 5 6 7 8 9 10;
#X obj 169 244 mtof;
#X obj 253 264 + 3;
#X obj 134 611 *~ 0.063;
#X obj 72 610 *~ 0.063;
#X obj 170 223 mod 12;
#X obj 169 289 *~ 8;
#X msg 205 274 6000;
#X obj 153 367 *~;
#X obj 73 763 cos~;
#X obj 72 785 hip~ 12;
#X obj 73 807 clip~ -1 1;
#X msg 461 145 52 48 64 67 76 79 81 83 88 93 95;
#X msg 478 117 50 48 64 67 76 79 81 86 88 93 95;
#X msg 495 90 50 52 66 69 76 79 83 86 91 93 95;
#X obj 144 27 t b b b b b;
#X obj 123 122 random 11;
#X obj 73 830 *~ 0.4;
#X obj 461 41 random 4;
#X obj 461 64 sel 1 2 3;
#X obj 73 741 *~ 8;
#X obj 151 783 *~ 8;
#X connect 0 0 29 1;
#X connect 0 1 30 1;
#X connect 0 2 31 1;
#X connect 0 3 32 1;
#X connect 0 4 33 1;
#X connect 0 5 34 1;
#X connect 0 6 35 1;
#X connect 0 7 36 1;
#X connect 0 8 37 1;
#X connect 0 9 38 1;
#X connect 0 10 39 1;
#X connect 1 0 6 0;
#X connect 2 0 7 1;
#X connect 2 0 8 0;
#X connect 2 0 9 0;
#X connect 3 0 4 0;
#X connect 3 0 25 0;
#X connect 3 0 24 0;
#X connect 4 0 5 0;
#X connect 5 0 1 0;
#X connect 6 0 2 0;
#X connect 7 0 10 0;
#X connect 8 0 7 0;
#X connect 9 0 11 0;
#X connect 10 0 13 0;
#X connect 11 0 12 1;
#X connect 12 0 22 0;
#X connect 12 0 44 0;
#X connect 13 0 14 1;
#X connect 14 0 22 0;
#X connect 14 0 43 0;
#X connect 17 0 55 0;
#X connect 18 0 27 1;
#X connect 19 0 43 0;
#X connect 20 0 12 0;
#X connect 20 0 14 0;
#X connect 21 0 44 0;
#X connect 23 0 19 0;
#X connect 24 0 26 0;
#X connect 25 0 23 0;
#X connect 26 0 21 0;
#X connect 27 0 20 0;
#X connect 28 0 48 0;
#X connect 28 0 48 1;
#X connect 29 0 45 0;
#X connect 30 0 45 0;
#X connect 31 0 45 0;
#X connect 32 0 45 0;
#X connect 33 0 45 0;
#X connect 34 0 45 0;
#X connect 35 0 45 0;
#X connect 36 0 45 0;
#X connect 37 0 45 0;
#X connect 38 0 45 0;
#X connect 39 0 45 0;
#X connect 40 0 29 0;
#X connect 40 1 30 0;
#X connect 40 2 31 0;
#X connect 40 3 32 0;
#X connect 40 4 33 0;
#X connect 40 5 34 0;
#X connect 40 6 35 0;
#X connect 40 7 36 0;
#X connect 40 8 37 0;
#X connect 40 9 38 0;
#X connect 40 10 39 0;
#X connect 41 0 46 0;
#X connect 43 0 61 0;
#X connect 44 0 60 0;
#X connect 45 0 41 0;
#X connect 46 0 18 0;
#X connect 47 0 28 1;
#X connect 48 0 27 0;
#X connect 49 0 50 0;
#X connect 50 0 51 0;
#X connect 51 0 57 0;
#X connect 52 0 0 0;
#X connect 53 0 0 0;
#X connect 54 0 0 0;
#X connect 55 1 28 0;
#X connect 55 2 47 0;
#X connect 55 3 56 0;
#X connect 55 4 58 0;
#X connect 56 0 40 0;
#X connect 57 0 15 0;
#X connect 58 0 59 0;
#X connect 59 0 52 0;
#X connect 59 1 53 0;
#X connect 59 2 54 0;
#X connect 60 0 49 0;
#X connect 61 0 16 0;
#X restore 400 535 pd arper;
#X obj 400 515 bng 15 250 50 0 empty empty empty 17 7 0 10 -262144
-1 -1;
#X obj 73 315 mod 6;
#X obj 130 206 + 3000;
#X obj 110 525 typad;
#X obj -159 525 typad;
#X obj -70 525 typad;
#X obj 20 525 typad;
#X obj 200 525 typad;
#X obj 333 443 sel 1 2;
#X obj 404 333 random 6000;
#X obj 333 420 random 3;
#X obj 404 355 + 3000;
#X connect 0 0 28 0;
#X connect 0 0 29 0;
#X connect 0 0 30 0;
#X connect 0 0 31 0;
#X connect 0 0 42 0;
#X connect 1 0 38 0;
#X connect 2 0 5 0;
#X connect 2 1 4 0;
#X connect 3 0 2 0;
#X connect 4 0 21 0;
#X connect 5 0 22 0;
#X connect 6 0 58 0;
#X connect 7 0 59 0;
#X connect 8 0 60 0;
#X connect 9 0 0 0;
#X connect 9 0 17 0;
#X connect 9 0 23 0;
#X connect 9 0 39 0;
#X connect 9 0 49 0;
#X connect 10 0 1 0;
#X connect 11 0 6 0;
#X connect 12 0 7 0;
#X connect 13 0 8 0;
#X connect 14 0 57 0;
#X connect 15 0 14 0;
#X connect 16 0 17 1;
#X connect 17 0 63 0;
#X connect 17 0 64 0;
#X connect 18 0 20 0;
#X connect 19 0 24 0;
#X connect 19 1 32 0;
#X connect 20 0 21 1;
#X connect 20 0 22 1;
#X connect 21 0 26 0;
#X connect 22 0 25 0;
#X connect 23 0 19 0;
#X connect 24 0 18 0;
#X connect 27 0 9 0;
#X connect 28 0 43 3;
#X connect 29 0 43 2;
#X connect 30 0 43 1;
#X connect 31 0 43 0;
#X connect 32 0 18 0;
#X connect 36 0 37 0;
#X connect 38 0 5 0;
#X connect 38 1 4 0;
#X connect 39 0 0 0;
#X connect 40 0 61 0;
#X connect 41 0 40 0;
#X connect 42 0 43 4;
#X connect 43 0 44 0;
#X connect 44 0 45 0;
#X connect 45 0 1 0;
#X connect 45 0 6 0;
#X connect 45 0 7 0;
#X connect 45 0 8 0;
#X connect 45 0 14 0;
#X connect 45 0 40 0;
#X connect 46 0 10 0;
#X connect 46 1 11 0;
#X connect 46 2 12 0;
#X connect 46 3 13 0;
#X connect 46 4 15 0;
#X connect 46 5 41 0;
#X connect 47 0 49 1;
#X connect 48 0 51 0;
#X connect 49 0 48 0;
#X connect 49 0 50 0;
#X connect 50 0 56 0;
#X connect 51 0 52 0;
#X connect 51 0 55 0;
#X connect 52 0 51 1;
#X connect 53 0 5 0;
#X connect 53 1 4 0;
#X connect 54 0 53 0;
#X connect 55 0 46 0;
#X connect 56 0 47 0;
#X connect 57 0 5 0;
#X connect 57 1 4 0;
#X connect 58 0 5 0;
#X connect 58 1 4 0;
#X connect 59 0 5 0;
#X connect 59 1 4 0;
#X connect 60 0 5 0;
#X connect 60 1 4 0;
#X connect 61 0 5 0;
#X connect 61 1 4 0;
#X connect 62 0 3 0;
#X connect 62 1 54 0;
#X connect 63 0 65 0;
#X connect 64 0 62 0;
#X connect 65 0 16 0;
