#N canvas 1046 324 1292 945 10;
#X msg -118 152 bang;
#X msg -154 502 11 10 0 3;
#N canvas 673 261 842 656 noise2 0;
#X obj 12 126 noise~;
#X obj 160 258 *~;
#X obj 175 218 line;
#X obj 175 195 t a b;
#X obj 178 240 hsl 80 12 0 1 0 0 empty empty empty -2 -8 0 10 -262144
-1 -1 0 1;
#X obj 233 172 delay 600;
#X obj 12 150 *~ 0.1;
#X obj 140 5 inlet;
#X obj 143 39 bng 15 250 50 0 empty empty empty 17 7 0 10 -262144 -1
-1;
#X obj 55 102 randomF 0.1;
#X floatatom 55 123 5 0 0 0 - - -;
#X obj 175 89 random 1000;
#X floatatom 175 130 5 0 0 0 - - -;
#X obj 175 111 + 300;
#X obj 165 458 outlet~;
#X obj 218 456 outlet~;
#X floatatom 402 169 5 0 0 0 - - -;
#X obj 402 212 line~;
#X obj 470 161 t b f;
#X floatatom 470 226 5 0 0 0 - - -;
#X obj 470 205 -;
#X msg 470 184 1;
#X obj 470 271 line~;
#X obj 217 393 *~;
#X obj 164 394 *~;
#X msg 402 191 \$1 2000;
#X msg 470 250 \$1 2000;
#X msg 231 196 0 3000;
#X obj 402 122 randomF 1;
#X obj 402 144 +;
#X msg 175 172 1 \$1;
#X connect 0 0 6 0;
#X connect 1 0 24 0;
#X connect 1 0 23 0;
#X connect 2 0 4 0;
#X connect 3 0 2 0;
#X connect 3 1 5 0;
#X connect 4 0 1 1;
#X connect 5 0 27 0;
#X connect 6 0 1 0;
#X connect 7 0 8 0;
#X connect 8 0 9 0;
#X connect 8 0 11 0;
#X connect 8 0 28 0;
#X connect 9 0 10 0;
#X connect 10 0 6 1;
#X connect 11 0 13 0;
#X connect 12 0 30 0;
#X connect 12 0 5 0;
#X connect 13 0 12 0;
#X connect 16 0 25 0;
#X connect 17 0 24 1;
#X connect 18 0 21 0;
#X connect 18 1 20 1;
#X connect 19 0 26 0;
#X connect 20 0 19 0;
#X connect 21 0 20 0;
#X connect 22 0 23 1;
#X connect 23 0 15 0;
#X connect 24 0 14 0;
#X connect 25 0 17 0;
#X connect 26 0 22 0;
#X connect 27 0 2 0;
#X connect 28 0 29 0;
#X connect 29 0 16 0;
#X connect 29 0 18 0;
#X connect 30 0 3 0;
#X restore -285 498 pd noise2;
#X obj -285 477 bng 15 250 50 0 empty empty empty 17 7 0 10 -262144
-1 -1;
#X obj -237 753 +~;
#X obj -285 753 +~;
#X msg -65 503 11 10 0 3;
#X msg 24 502 11 10 0 3;
#X msg 114 503 11 10 0 3;
#X obj -118 98 tgl 15 0 empty empty empty 17 7 0 10 -262144 -1 -1 0
1;
#X obj -154 477 bng 15 250 50 0 empty empty empty 17 7 0 10 -262144
-1 -1;
#X obj -65 479 bng 15 250 50 0 empty empty empty 17 7 0 10 -262144
-1 -1;
#X obj 24 480 bng 15 250 50 0 empty empty empty 17 7 0 10 -262144 -1
-1;
#X obj 114 483 bng 15 250 50 0 empty empty empty 17 7 0 10 -262144
-1 -1;
#X msg 204 500 11 10 0 3;
#X obj 204 481 bng 15 250 50 0 empty empty empty 17 7 0 10 -262144
-1 -1;
#X obj -118 236 pack f f f f;
#X msg -118 259 \$1 \$2 \$3 \$4;
#X msg -18 276 set \$1 \$2 \$3 \$4;
#X obj -287 372 sel 0 1 2 3 4;
#X floatatom -231 334 5 0 0 0 - - -;
#X obj -287 299 bng 15 250 50 0 empty empty empty 17 7 0 10 -262144
-1 -1;
#X obj -287 274 metro 8000;
#X obj -231 291 random 10000;
#X obj -231 313 + 8000;
#X obj -118 122 metro 8000;
#X obj -287 324 f 0;
#X obj -261 324 + 1;
#X obj 349 533 t a;
#X obj 349 499 sel 1 0;
#X obj 349 556 line~;
#X obj -236 845 *~;
#X obj -284 845 *~;
#X obj 349 473 tgl 15 0 empty empty empty 17 7 0 10 -262144 -1 -1 0
1;
#X msg 349 516 1 2000;
#X obj -284 895 outlet~;
#X obj -235 895 outlet~;
#X obj -118 67 inlet;
#X obj 71 182 random 14;
#X obj 8 183 random 14;
#X obj -58 183 random 14;
#X obj -118 183 random 14;
#X msg 407 516 0 2000;
#X text 349 450 play or stop;
#X text -287 31 southint.com;
#X text -288 43 WaterTian;
#X obj -287 351 mod 7;
#X obj 204 525 typad;
#X obj 282 67 inlet;
#X obj 285 231 hsl 128 15 0 32 0 0 empty empty empty -2 -8 0 10 -204786
-1 -1 0 1;
#X floatatom 282 256 5 0 0 0 - - -;
#X obj -154 525 typad;
#X obj -65 525 typad;
#X obj 24 525 typad;
#X obj 114 525 typad;
#X connect 0 0 38 0;
#X connect 0 0 39 0;
#X connect 0 0 40 0;
#X connect 0 0 41 0;
#X connect 1 0 51 0;
#X connect 2 0 5 0;
#X connect 2 1 4 0;
#X connect 3 0 2 0;
#X connect 4 0 31 0;
#X connect 5 0 32 0;
#X connect 6 0 52 0;
#X connect 7 0 53 0;
#X connect 8 0 54 0;
#X connect 9 0 0 0;
#X connect 9 0 22 0;
#X connect 9 0 25 0;
#X connect 9 0 33 0;
#X connect 10 0 1 0;
#X connect 11 0 6 0;
#X connect 12 0 7 0;
#X connect 13 0 8 0;
#X connect 14 0 47 0;
#X connect 15 0 14 0;
#X connect 16 0 17 0;
#X connect 17 0 18 0;
#X connect 18 0 1 0;
#X connect 18 0 6 0;
#X connect 18 0 7 0;
#X connect 18 0 8 0;
#X connect 18 0 14 0;
#X connect 19 0 10 0;
#X connect 19 1 11 0;
#X connect 19 2 12 0;
#X connect 19 3 13 0;
#X connect 19 4 15 0;
#X connect 19 5 3 0;
#X connect 20 0 22 1;
#X connect 21 0 26 0;
#X connect 22 0 21 0;
#X connect 22 0 23 0;
#X connect 23 0 24 0;
#X connect 24 0 20 0;
#X connect 25 0 0 0;
#X connect 26 0 27 0;
#X connect 26 0 46 0;
#X connect 27 0 26 1;
#X connect 28 0 30 0;
#X connect 29 0 34 0;
#X connect 29 1 42 0;
#X connect 30 0 31 1;
#X connect 30 0 32 1;
#X connect 31 0 36 0;
#X connect 32 0 35 0;
#X connect 33 0 29 0;
#X connect 34 0 28 0;
#X connect 37 0 9 0;
#X connect 38 0 16 3;
#X connect 39 0 16 2;
#X connect 40 0 16 1;
#X connect 41 0 16 0;
#X connect 42 0 28 0;
#X connect 46 0 19 0;
#X connect 47 0 5 0;
#X connect 47 1 4 0;
#X connect 48 0 49 0;
#X connect 49 0 50 0;
#X connect 50 0 47 1;
#X connect 50 0 51 1;
#X connect 50 0 52 1;
#X connect 50 0 53 1;
#X connect 50 0 54 1;
#X connect 51 0 5 0;
#X connect 51 1 4 0;
#X connect 52 0 5 0;
#X connect 52 1 4 0;
#X connect 53 0 5 0;
#X connect 53 1 4 0;
#X connect 54 0 5 0;
#X connect 54 1 4 0;
