#N canvas 162 109 995 706 10;
#X msg -248 217 bang;
#X msg -248 482 11 12 3 3;
#N canvas 670 219 842 656 noise2 0;
#X obj 12 126 noise~;
#X obj 160 298 *~;
#X obj 175 208 line;
#X obj 175 185 t a b;
#X obj 178 230 hsl 80 12 0 1 0 0 empty empty empty -2 -8 0 10 -262144
-1 -1 0 1;
#X obj 12 150 *~ 0.1;
#X obj 140 5 inlet;
#X obj 143 39 bng 15 250 50 0 empty empty empty 17 7 0 10 -262144 -1
-1;
#X obj 55 102 randomF 0.1;
#X floatatom 55 123 5 0 0 0 - - -;
#X obj 175 89 random 1000;
#X floatatom 175 130 5 0 0 0 - - -;
#X obj 165 458 outlet~;
#X obj 218 456 outlet~;
#X floatatom 402 169 5 0 0 0 - - -;
#X obj 402 212 line~;
#X obj 470 161 t b f;
#X floatatom 470 226 5 0 0 0 - - -;
#X obj 470 205 -;
#X msg 470 184 1;
#X obj 470 271 line~;
#X obj 217 393 *~;
#X obj 164 394 *~;
#X msg 402 191 \$1 2000;
#X msg 470 250 \$1 2000;
#X msg 233 186 0 3000;
#X obj 175 111 + 500;
#X obj 402 122 randomF 1;
#X obj 402 144 +;
#X msg 175 162 1 \$1;
#X obj 175 264 * 0.6;
#X obj 233 162 delay 1000;
#X connect 0 0 5 0;
#X connect 1 0 22 0;
#X connect 1 0 21 0;
#X connect 2 0 4 0;
#X connect 3 0 2 0;
#X connect 3 1 31 0;
#X connect 4 0 30 0;
#X connect 5 0 1 0;
#X connect 6 0 7 0;
#X connect 7 0 8 0;
#X connect 7 0 10 0;
#X connect 7 0 27 0;
#X connect 8 0 9 0;
#X connect 9 0 5 1;
#X connect 10 0 26 0;
#X connect 11 0 29 0;
#X connect 11 0 31 0;
#X connect 14 0 23 0;
#X connect 15 0 22 1;
#X connect 16 0 19 0;
#X connect 16 1 18 1;
#X connect 17 0 24 0;
#X connect 18 0 17 0;
#X connect 19 0 18 0;
#X connect 20 0 21 1;
#X connect 21 0 13 0;
#X connect 22 0 12 0;
#X connect 23 0 15 0;
#X connect 24 0 20 0;
#X connect 25 0 2 0;
#X connect 26 0 11 0;
#X connect 27 0 28 0;
#X connect 28 0 14 0;
#X connect 28 0 16 0;
#X connect 29 0 3 0;
#X connect 30 0 1 1;
#X connect 31 0 25 0;
#X restore 334 516 pd noise2;
#X obj 334 495 bng 15 250 50 0 empty empty empty 17 7 0 10 -262144
-1 -1;
#X obj -200 661 +~;
#X obj -248 661 +~;
#X msg -159 483 11 12 3 3;
#X msg -70 482 11 12 3 3;
#X msg 20 483 11 12 3 3;
#X obj 135 60 tgl 15 0 empty empty empty 17 7 0 10 -262144 -1 -1 1
1;
#X obj -248 457 bng 15 250 50 0 empty empty empty 17 7 0 10 -262144
-1 -1;
#X obj -159 459 bng 15 250 50 0 empty empty empty 17 7 0 10 -262144
-1 -1;
#X obj -70 460 bng 15 250 50 0 empty empty empty 17 7 0 10 -262144
-1 -1;
#X obj 20 463 bng 15 250 50 0 empty empty empty 17 7 0 10 -262144 -1
-1;
#X msg 110 480 11 12 3 3;
#X obj 110 461 bng 15 250 50 0 empty empty empty 17 7 0 10 -262144
-1 -1;
#X floatatom 404 376 5 0 0 0 - - -;
#X obj 334 392 metro 8000;
#X obj 580 475 t a;
#X obj 580 441 sel 1 0;
#X obj 580 498 line~;
#X obj -199 703 *~;
#X obj -247 703 *~;
#X obj 580 415 tgl 15 0 empty empty empty 17 7 0 10 -262144 -1 -1 1
1;
#X msg 580 458 1 2000;
#X obj -247 733 outlet~;
#X obj -198 733 outlet~;
#X obj 135 33 inlet;
#X obj -66 247 random 14;
#X obj -127 248 random 14;
#X obj -188 248 random 14;
#X obj -248 248 random 14;
#X msg 638 458 0 2000;
#X text 580 392 play or stop;
#X text -287 31 southint.com;
#X text -288 43 WaterTian;
#X obj 341 35 inlet;
#X floatatom 341 64 5 0 0 0 - - -;
#X obj -248 187 metro 5000;
#X msg 200 480 11 12 3 3;
#X obj 200 461 bng 15 250 50 0 empty empty empty 17 7 0 10 -262144
-1 -1;
#X obj 73 343 sel 0 1 2 3 4 5;
#X floatatom 130 227 5 0 0 0 - - -;
#X obj 73 272 bng 15 250 50 0 empty empty empty 17 7 0 10 -262144 -1
-1;
#X obj 73 293 f 0;
#X obj 99 293 + 1;
#N canvas 1745 22 855 907 arper 0;
#X obj 78 192 unpack 1 2 3 4 5 6 7 8 9 10 11;
#X obj 66 410 random 100;
#X obj 66 452 line;
#X obj 66 345 loadbang;
#X msg 66 365 1;
#X obj 66 389 metro 1000;
#X msg 66 430 \$1 1000;
#X obj 72 504 -;
#X msg 67 481 100;
#X obj 64 526 / 100;
#X obj 106 525 / 100;
#X obj 64 549 + 0.1;
#X obj 91 580 *~;
#X obj 110 548 + 0.1;
#X obj 121 580 *~;
#X obj 73 781 outlet~;
#X obj 155 782 outlet~;
#X obj 144 25 inlet;
#X obj 169 316 osc~;
#X obj 160 583 delread~ \$0-gggg 100;
#X obj 154 423 *~ 0.5;
#X obj 157 508 delread~ \$0-gggg 100;
#X obj 111 634 delwrite~ \$0-gggg 200;
#N canvas 0 22 450 300 lagfo 0;
#X obj 66 127 env~;
#X obj 74 58 cos~;
#X obj 71 81 sqrt~;
#X obj 68 105 sqrt~;
#X obj 75 37 phasor~ 0.03;
#X obj 77 7 inlet;
#X obj 65 197 outlet;
#X obj 65 168 line;
#X msg 65 148 \$1 3002;
#X connect 0 0 8 0;
#X connect 1 0 2 0;
#X connect 2 0 3 0;
#X connect 3 0 0 0;
#X connect 4 0 1 0;
#X connect 5 0 4 0;
#X connect 7 0 6 0;
#X connect 8 0 7 0;
#X restore 160 559 pd lagfo;
#X msg 158 465 0.2;
#X msg 160 537 0.13;
#N canvas 0 22 450 300 lagfo 0;
#X obj 66 127 env~;
#X obj 74 58 cos~;
#X obj 71 81 sqrt~;
#X obj 68 105 sqrt~;
#X obj 75 37 phasor~ 0.03;
#X obj 77 7 inlet;
#X obj 65 197 outlet;
#X obj 65 168 line;
#X msg 65 148 \$1 3002;
#X connect 0 0 8 0;
#X connect 1 0 2 0;
#X connect 2 0 3 0;
#X connect 3 0 0 0;
#X connect 4 0 1 0;
#X connect 5 0 4 0;
#X connect 7 0 6 0;
#X connect 8 0 7 0;
#X restore 158 486 pd lagfo;
#X obj 154 402 *~;
#N canvas 0 22 450 300 enver 0;
#X obj 79 137 line~;
#X msg 66 38 bang;
#X obj 77 160 *~;
#X obj 78 181 *~;
#X obj 66 13 inlet;
#X obj 78 205 outlet~;
#X obj 109 115 pack 1 2;
#X msg 105 92 0;
#X obj 159 11 inlet;
#X msg 66 92 1 1;
#X obj 105 71 del 2;
#X connect 0 0 2 0;
#X connect 0 0 2 1;
#X connect 1 0 9 0;
#X connect 1 0 10 0;
#X connect 2 0 3 0;
#X connect 2 0 3 1;
#X connect 3 0 5 0;
#X connect 4 0 1 0;
#X connect 6 0 0 0;
#X connect 7 0 6 0;
#X connect 8 0 6 1;
#X connect 9 0 0 0;
#X connect 10 0 7 0;
#X restore 153 341 pd enver;
#X obj 41 220 f;
#X obj 70 220 f;
#X obj 99 220 f;
#X obj 128 220 f;
#X obj 156 219 f;
#X obj 185 219 f;
#X obj 214 219 f;
#X obj 243 219 f;
#X obj 273 219 f;
#X obj 302 219 f;
#X obj 331 219 f;
#X obj 121 162 select 0 1 2 3 4 5 6 7 8 9 10;
#X obj 169 263 mtof;
#X obj 253 264 + 3;
#X obj 134 611 *~ 0.063;
#X obj 72 610 *~ 0.063;
#X obj 170 242 mod 12;
#X obj 169 289 *~ 8;
#X msg 205 274 6000;
#X obj 153 367 *~;
#X obj 73 673 cos~;
#X obj 72 695 hip~ 12;
#X obj 73 717 clip~ -1 1;
#X msg 461 164 52 48 64 67 76 79 81 83 88 93 95;
#X msg 478 136 50 48 64 67 76 79 81 86 88 93 95;
#X msg 495 109 50 52 66 69 76 79 83 86 91 93 95;
#X obj 144 46 t b b b b b;
#X obj 123 141 random 11;
#X obj 461 60 random 4;
#X obj 461 83 sel 1 2 3;
#X obj 107 31 bng 15 250 50 0 empty empty empty 17 7 0 10 -262144 -1
-1;
#X obj 73 740 *~ 0.2;
#X obj 155 693 *~ 2;
#X obj 73 651 *~ 8;
#X connect 0 0 29 1;
#X connect 0 1 30 1;
#X connect 0 2 31 1;
#X connect 0 3 32 1;
#X connect 0 4 33 1;
#X connect 0 5 34 1;
#X connect 0 6 35 1;
#X connect 0 7 36 1;
#X connect 0 8 37 1;
#X connect 0 9 38 1;
#X connect 0 10 39 1;
#X connect 1 0 6 0;
#X connect 2 0 7 1;
#X connect 2 0 8 0;
#X connect 2 0 9 0;
#X connect 3 0 4 0;
#X connect 3 0 25 0;
#X connect 3 0 24 0;
#X connect 4 0 5 0;
#X connect 5 0 1 0;
#X connect 6 0 2 0;
#X connect 7 0 10 0;
#X connect 8 0 7 0;
#X connect 9 0 11 0;
#X connect 10 0 13 0;
#X connect 11 0 12 1;
#X connect 12 0 22 0;
#X connect 12 0 44 0;
#X connect 13 0 14 1;
#X connect 14 0 22 0;
#X connect 14 0 43 0;
#X connect 17 0 55 0;
#X connect 18 0 27 1;
#X connect 19 0 43 0;
#X connect 20 0 12 0;
#X connect 20 0 14 0;
#X connect 21 0 44 0;
#X connect 23 0 19 0;
#X connect 24 0 26 0;
#X connect 25 0 23 0;
#X connect 26 0 21 0;
#X connect 27 0 20 0;
#X connect 28 0 48 0;
#X connect 28 0 48 1;
#X connect 29 0 45 0;
#X connect 30 0 45 0;
#X connect 31 0 45 0;
#X connect 32 0 45 0;
#X connect 33 0 45 0;
#X connect 34 0 45 0;
#X connect 35 0 45 0;
#X connect 36 0 45 0;
#X connect 37 0 45 0;
#X connect 38 0 45 0;
#X connect 39 0 45 0;
#X connect 40 0 29 0;
#X connect 40 1 30 0;
#X connect 40 2 31 0;
#X connect 40 3 32 0;
#X connect 40 4 33 0;
#X connect 40 5 34 0;
#X connect 40 6 35 0;
#X connect 40 7 36 0;
#X connect 40 8 37 0;
#X connect 40 9 38 0;
#X connect 40 10 39 0;
#X connect 41 0 46 0;
#X connect 43 0 61 0;
#X connect 44 0 62 0;
#X connect 45 0 41 0;
#X connect 46 0 18 0;
#X connect 47 0 28 1;
#X connect 48 0 27 0;
#X connect 49 0 50 0;
#X connect 50 0 51 0;
#X connect 51 0 60 0;
#X connect 52 0 0 0;
#X connect 53 0 0 0;
#X connect 54 0 0 0;
#X connect 55 1 28 0;
#X connect 55 2 47 0;
#X connect 55 3 56 0;
#X connect 55 4 57 0;
#X connect 56 0 40 0;
#X connect 57 0 58 0;
#X connect 58 0 52 0;
#X connect 58 1 53 0;
#X connect 58 2 54 0;
#X connect 59 0 55 0;
#X connect 60 0 15 0;
#X connect 61 0 16 0;
#X connect 62 0 49 0;
#X restore 400 515 pd arper;
#X obj 400 495 bng 15 250 50 0 empty empty empty 17 7 0 10 -262144
-1 -1;
#X obj 73 315 mod 6;
#X obj -248 505 typad;
#X obj -248 291 pack f f f f;
#X msg -248 314 \$1 \$2 \$3 \$4;
#X msg -248 336 set \$1 \$2 \$3 \$4;
#X obj 73 247 metro 5000;
#X obj 200 505 typad;
#X obj 110 505 typad;
#X obj -159 505 typad;
#X obj -70 505 typad;
#X obj 20 505 typad;
#X obj 130 206 + 1000;
#X obj 130 184 random 4000;
#X obj 404 355 + 2000;
#X obj 404 333 random 3000;
#X obj 333 420 random 4;
#X obj 333 444 sel 1 2 3;
#X connect 0 0 28 0;
#X connect 0 0 29 0;
#X connect 0 0 30 0;
#X connect 0 0 31 0;
#X connect 1 0 49 0;
#X connect 2 0 5 0;
#X connect 2 1 4 0;
#X connect 3 0 2 0;
#X connect 4 0 21 0;
#X connect 5 0 22 0;
#X connect 6 0 56 0;
#X connect 7 0 57 0;
#X connect 8 0 58 0;
#X connect 9 0 0 0;
#X connect 9 0 17 0;
#X connect 9 0 23 0;
#X connect 9 0 38 0;
#X connect 9 0 53 0;
#X connect 10 0 1 0;
#X connect 11 0 6 0;
#X connect 12 0 7 0;
#X connect 13 0 8 0;
#X connect 14 0 55 0;
#X connect 15 0 14 0;
#X connect 16 0 17 1;
#X connect 17 0 62 0;
#X connect 17 0 63 0;
#X connect 18 0 20 0;
#X connect 19 0 24 0;
#X connect 19 1 32 0;
#X connect 20 0 21 1;
#X connect 20 0 22 1;
#X connect 21 0 26 0;
#X connect 22 0 25 0;
#X connect 23 0 19 0;
#X connect 24 0 18 0;
#X connect 27 0 9 0;
#X connect 28 0 50 3;
#X connect 29 0 50 2;
#X connect 30 0 50 1;
#X connect 31 0 50 0;
#X connect 32 0 18 0;
#X connect 36 0 37 0;
#X connect 38 0 0 0;
#X connect 39 0 54 0;
#X connect 40 0 39 0;
#X connect 41 0 10 0;
#X connect 41 1 11 0;
#X connect 41 2 12 0;
#X connect 41 3 13 0;
#X connect 41 4 15 0;
#X connect 41 5 40 0;
#X connect 42 0 53 1;
#X connect 43 0 44 0;
#X connect 44 0 45 0;
#X connect 44 0 48 0;
#X connect 45 0 44 1;
#X connect 46 0 5 0;
#X connect 46 1 4 0;
#X connect 47 0 46 0;
#X connect 48 0 41 0;
#X connect 49 0 5 0;
#X connect 49 1 4 0;
#X connect 50 0 51 0;
#X connect 51 0 52 0;
#X connect 52 0 1 0;
#X connect 52 0 6 0;
#X connect 52 0 7 0;
#X connect 52 0 8 0;
#X connect 52 0 14 0;
#X connect 52 0 39 0;
#X connect 53 0 43 0;
#X connect 53 0 60 0;
#X connect 54 0 5 0;
#X connect 54 1 4 0;
#X connect 55 0 5 0;
#X connect 55 1 4 0;
#X connect 56 0 5 0;
#X connect 56 1 4 0;
#X connect 57 0 5 0;
#X connect 57 1 4 0;
#X connect 58 0 5 0;
#X connect 58 1 4 0;
#X connect 59 0 42 0;
#X connect 60 0 59 0;
#X connect 61 0 16 0;
#X connect 62 0 61 0;
#X connect 63 0 64 0;
#X connect 64 0 3 0;
#X connect 64 1 47 0;
#X connect 64 2 47 0;
